<svg aria-hidden="true" style="position: absolute; width: 0; height: 0; overflow: hidden;" version="1.1" xmlns="http://www.w3.org/2000/svg" xmlns:xlink="http://www.w3.org/1999/xlink">
  <defs>
<symbol id="icon-star-4-corner" viewBox="0 0 24 24" >
<title>star 4 corner</title>
<path xmlns="http://www.w3.org/2000/svg" d="M12 3L13.4302 8.31181C13.6047 8.96 13.692 9.28409 13.8642 9.54905C14.0166 9.78349 14.2165 9.98336 14.451 10.1358C14.7159 10.308 15.04 10.3953 15.6882 10.5698L21 12L15.6882 13.4302C15.04 13.6047 14.7159 13.692 14.451 13.8642C14.2165 14.0166 14.0166 14.2165 13.8642 14.451C13.692 14.7159 13.6047 15.04 13.4302 15.6882L12 21L10.5698 15.6882C10.3953 15.04 10.308 14.7159 10.1358 14.451C9.98336 14.2165 9.78349 14.0166 9.54905 13.8642C9.28409 13.692 8.96 13.6047 8.31181 13.4302L3 12L8.31181 10.5698C8.96 10.3953 9.28409 10.308 9.54905 10.1358C9.78349 9.98336 9.98336 9.78349 10.1358 9.54905C10.308 9.28409 10.3953 8.96 10.5698 8.31181L12 3Z"/>
</symbol>
<symbol id="icon-wall-street-journal" viewBox="0 0 146 17">
<title>Wall street journal</title>
<path d="M23.939.832c.153.053.256.106.204.316-.051.368-.613.21-.921.315-.767.263-.512 1.314-.614 2.05v10.405c0 .421-.05.893.256 1.052.205.314.819.104 1.228.157.615-.106.87-.788 1.28-1.104.153-.578.409-1.05.512-1.63.307-1.05.153-2.416.511-3.468.204-.052.256.106.307.264v5.832c.102.158-.051.42-.051.579l-.46.105h-5.682c-.204-.051-.511 0-.613-.21.051-.578.972-.316.972-1V7.086c-.052-.946 0-2.154 0-3.047 0-.894.256-2.103-.359-2.576-.255-.263-1.074.157-.972-.42.052-.105.102-.158.256-.21h4.146zm20.574.788c.204.158.46 0 .562-.052.205-.21 0-.736.41-.683l.255.053v5.518c-.102.052 0 .367-.153.367h-.307c-.102-1.997-.256-4.046-1.689-4.992a1.691 1.691 0 0 0-.87-.263c-.614.052-.972.526-1.229.999-.357.577-.255 1.682.052 2.207.768 1.103 1.996 1.734 2.917 2.628.92.999 1.996 2.05 2.047 3.73.154 1.84-.46 3.364-1.638 4.363-.665.472-1.689.526-2.456.21l-1.075-.736c-.256-.104-.307.158-.409.263 0 .314-.051.526-.256.631l-.358-.105-.051-3.048V9.293a.705.705 0 0 1 .46 0c.102 2.155.154 4.414 1.689 5.519.46.315 1.024.578 1.689.367.972-.42 1.33-1.523 1.33-2.732-.102-1.052-.512-1.84-1.228-2.417-.972-1.209-2.405-1.84-3.326-3.154-.256-.315-.256-.736-.46-1.103-.513-1.735.153-3.47 1.125-4.52.46-.315 1.177-.525 1.79-.368.462.158.87.42 1.179.735M4.03.885c.103.052.256.052.307.263-.153.368-.614.368-.768.683-.153.315-.153.894-.05 1.261l.614 3.732c.256 1.208.511 2.469.818 3.679h.154c.41-1.787.717-3.575 1.023-5.361-.306-1.366-.05-3.206-1.279-3.836-.102-.263.052-.421.307-.421.717.052 3.02 0 3.583.052a.593.593 0 0 1 0 .42c-.41.159-.87.106-1.126.474-.563.946.204 1.945.153 3.048L8.38 8.19c.154.735.154 1.628.563 2.208h.052l.767-3.417c.41-1.419.614-2.943.922-4.414.102-.473-.052-.788-.359-.999-.205-.21-.563-.158-.87-.21a.593.593 0 0 1 0-.42c.767 0 3.122-.053 3.43 0 .153.052.101.315.05.42-.46.105-.92.21-1.177.526-.307.84-.46 1.734-.665 2.574l-.87 4.1c-.512 2.259-1.075 4.572-1.586 6.884-.103.158-.359.158-.462.053-.307-.42-.307-1.104-.46-1.681l-.767-4.521-.41-1.892h-.102l-.614 3.102a653.247 653.247 0 0 0-.921 4.625c-.052.314-.257.525-.667.419-.357-.105-.204-.577-.306-.893l-.256-1.682-.768-4.151-.511-2.996c-.154-1.209-.461-2.418-.717-3.574-.051-.315-.358-.525-.563-.735C.755 1.41.448 1.568.09 1.358c-.103-.105-.154-.42.05-.473h3.89zm27.841 0c.051.105.154.315.051.42-.46.21-1.228 0-1.33.58-.102 1.628-.102 2.837-.102 4.466l-.052 6.411h-.051c.307.788-.41 2.366.716 2.417.257.053.768.053 1.024-.105 1.024-.841 1.33-2.26 1.536-3.679.153-.735.05-1.628.256-2.365a.56.56 0 0 1 .409 0v6.412l-.052.263c-.819 0-1.689 0-2.303.053l-2.917-.053H27.47c-.256 0-.153-.368-.103-.526.512-.051 1.127 0 1.382-.42.205-.79.052-1.84.154-2.68-.102-.735.051-1.523-.05-2.365l.05-.684V2.303c-.05-.262-.205-.577-.359-.735-.307-.368-1.534.158-1.074-.683h4.401zM53.52.938l.102.262v6.045c-.05.157-.154.21-.256.262l-.256-.105c.051-1.892-.204-3.574-.717-5.098-.102-.315-.358-.578-.665-.736-.255 0-.512 0-.614.21v11.194h-.051c.051.788-.102 1.786.46 2.156.359.263.973-.158 1.025.42 0 .42-.564.105-.82.262h-1.125v-.052c-.359.158-.717-.105-1.024.052-.307-.052-.972-.052-1.433-.052-.154-.053-.102-.367-.051-.474.563-.105 1.177-.156 1.382-.788V1.884c-.103-.264-.256-.316-.461-.369-.768.21-.972 1.052-1.177 1.84-.256 1.156-.46 2.313-.359 3.732-.102.158 0 .42-.255.42l-.307-.105V1.043c.665-.21 5.015-.158 6.602-.105m16.889 0c.358.158.153.893.204 1.26.154.842-.102 1.788.051 2.523-.153.315.051.526 0 .84-.102.37 0 .895-.102 1.21-.717.052-.358-.893-.461-1.366-.154-1.63-.716-3.101-2.047-3.785-.46-.157-1.228-.157-1.535.211-.307.946-.153 2.523-.153 3.416-.103.315.05.42 0 .788v1.472c.05.157-.052.578.307.525 1.228-.578 1.381-2.05 1.381-3.521 0-.21.102-.315.41-.263l.05.315c-.101.684.103 1.525-.05 2.26 0 .736 0 1.735.05 2.523a24.226 24.226 0 0 0 0 2.733c0 .21-.101.315-.306.315-.358-.315-.103-1.208-.256-1.682-.205-.893-.41-1.944-1.382-2.154l-.154.105c-.102 1.156-.05 1.997-.05 3.049 0 .944.05 2.153 0 3.1.307.63 1.074.367 1.79.367 1.28-.577 1.74-2.154 1.996-3.626l.615.159V15.6l-.154.158-5.936.052c-.41-.105-1.127.053-1.536-.105-.153-.84.82-.264 1.126-.577.205-.106.307-.317.41-.526V2.199c-.103-.263-.257-.526-.461-.631-.358-.157-1.126.158-1.075-.472l.102-.158h7.166zm7.42 0c.256.158.973-.106 1.126.21 0 1.944.052 3.626 0 5.518-.051.157-.307.157-.41.052-.204-2.049-.153-4.467-1.995-5.203-.41-.157-.87.053-1.28.053-.256.263-.46.474-.46.894v5.097c.051.158.102.263.256.263 1.381-.368 1.28-2.102 1.484-3.52.05-.106.307-.106.409 0v2.154c.103.104 0 .104 0 .315.103.474 0 .84.051 1.42v1.418c-.153.788.052 1.787-.153 2.522-.103.106-.307.053-.358-.105-.103-1.209-.103-2.784-1.024-3.52-.102-.106-.409-.106-.563 0l-.102.367v3.416h.051c.05.841-.307 2.207.307 2.733.41.21.972.262 1.484.157 1.126-.368 1.433-1.577 1.843-2.627-.103-.421.153-.84.153-1.314l.103-1.682c.102-.105.204-.158.358-.052l.103.105c-.155.788.307 2.05-.41 2.366-.051.209-.307.209-.307.472.205-.21.46-.42.665-.735h.102l-.05 3.046c-.103.37.152.947-.257 1.052-.87.106-1.69.053-2.559.053-1.638-.105-3.172-.053-4.76-.053-.153-.052-.153-.369-.05-.472.46-.16 1.074-.054 1.381-.527.46-.366.204-1.418.257-2.102.05-1.156-.103-2.68 0-3.73l-.053-2.996V2.25c-.152-.42-.46-.788-.97-.788-.309 0-.667.052-.564-.367.051-.21 5.373-.158 6.192-.158m8.957.158l.102.158.05 4.047c-.152.682 0 1.523-.1 2.206-.155.158-.308 0-.411-.052l-.154-2.575c-.204-1.209-.409-2.312-1.075-3.153-.152-.158-.512-.158-.614 0l-.205.21v12.771c.103.735 1.128.314 1.537.63.05.263-.052.421-.257.473-1.33.157-2.66-.105-3.991 0-.307.053-.307-.315-.205-.473.46-.104 1.024-.053 1.177-.526l.051-5.885V1.988c-.102-.157-.204-.315-.41-.367-.92.105-.971 1.05-1.228 1.734l-.409 2.838c-.102.473.102 1.104-.153 1.367l-.308-.054-.05-2.943c0-1.05-.052-2.364.05-3.415.36-.263 5.733-.105 6.603-.053m11.054-.052c.256-.053.307.21.205.367-.512.106-1.024.106-1.331.474-.359.84.051 1.944-.102 2.838.05.157-.052.472 0 .735.05.683 0 1.471 0 2.102v5.885c-.307 1.052-.768 2.103-1.792 2.365-1.024.263-1.688-.21-2.15-.735-.562-.841-1.176-1.944-.716-3.205.205-.474.563-.736 1.075-.788.256.105.563.21.665.472-.05.473.257.998-.05 1.314-.052.422-.615.422-.615.894.051.63.308 1.155.819 1.367.46.104.716-.107.972-.37.36-1.05.154-2.732.154-3.888l.05-3.048V2.41c-.102-.316-.204-.579-.46-.842-.306-.262-1.023.105-1.177-.315l.154-.316c1.586 0 2.712.158 4.3.106m11.207.052c.205-.104.614-.158.768.105.05.316-.154.368-.359.42-.307 0-.512.158-.716.316-.205.367-.205.894-.205 1.42v5.99l-.051.052c.102 1.577 0 2.628.102 4.258.154.63.512 1.21 1.075 1.523.46.105 1.074.054 1.382-.314.512-.37.615-.947.717-1.526V8.085l-.052-.315.052-4.625c.05-.473-.052-.999-.307-1.367-.257-.21-.718-.21-1.025-.262l.052-.368 2.713-.053c.153 0 .255.158.255.263 0 .263-.41.105-.512.21-.255.053-.511.263-.511.526l-.154.84v10.51c-.102.895-.613 1.63-1.228 2.156-.41.367-1.228.21-1.689.316-1.024-.211-1.894-.946-2.201-1.946-.614-1.314-.204-3.467-.358-4.887v-6.78c-.102-.315-.256-.525-.512-.682-.256-.105-.716 0-.716-.316-.052-.314.307-.157.46-.262l3.02.052zm15.762 0c.103.105.308.158.36.315 1.023 2.944 1.79 5.992 2.968 8.83.307-.053-.103-.368.102-.526-.052-1.104.05-2.154-.052-3.311.102-.63 0-1.103.052-1.787-.154-.105.103-.262-.052-.315.102-.63-.05-1.525-.05-2.26-.257-.368-.717-.473-1.23-.473 0-.052-.1-.368.103-.42h2.97c.203.052.101.262.101.42-.307.158-.768.105-.973.42l-.204.526-.05 2.837v8.988c-.053.42.05 1.103-.053 1.524-.102.104-.357.158-.46.053-.358-.474-.307-1.263-.665-1.735-.563-1.419-.87-3.048-1.434-4.414l-1.022-2.996c-.155-.526-.41-.946-.565-1.42l-.102.054c-.152.63-.152 1.156-.05 1.786l-.052 2.84v4.676c.102.263.204.526.46.684.257.156.872-.158.872.314l-.053.211-2.865.051c-.204-.051-.46-.051-.46-.314.204-.42 1.074 0 1.28-.525.203-.42.203-1 .203-1.577l-.051-6.045V2.461c-.102-.735-.818-.788-1.381-.945-.155-.106 0-.263 0-.368.767-.105 1.535-.053 2.354-.053m17.759.053c.204.052.409.105.409.367-.102.369-.767.158-1.023.369-.36.158-.36.63-.461.946v11.719c-.154.368.102.63.307.842.41.262 1.33.21 1.842.05.82-.524.973-1.576 1.331-2.522l.358-2.733c.052-.105.257-.105.41 0v4.889h-.052c0 .263.051.683-.05.946-.256.105-.666 0-.87.052l-.154-.052-2.764.052c-1.075-.052-2.251.104-3.122-.157-.102-.053-.102-.263-.05-.369.306-.21.971.053 1.125-.42l.051-.525V2.199c-.255-.526-.82-.579-1.331-.579 0-.21-.102-.42.103-.472h3.94zm-39.613 1.366c-.307-.578-.716-1.05-1.484-.998-.716.157-1.023.946-1.228 1.628 0 1.525.051 2.524 0 3.837-.05.263.205.421 0 .683.102.053 0 .368.102.42-.102.841-.05 1.735-.102 2.523.205.683-.05 1.314 0 2.05-.05.894.102 1.892.87 2.417.358.21.973.263 1.331-.053.256-.42.511-.788.614-1.314l.05-6.831-.05-.053v-3.31l-.103-.999zm.922-.052c.666.945.87 2.312 1.177 3.626.358 2.733.103 5.886-.922 7.882a4.562 4.562 0 0 1-1.636 1.788c-.615.158-1.536.21-1.946-.212-1.944-1.839-2.405-4.73-2.354-8.092.103-2.26.768-4.414 2.047-5.938.512-.578 1.485-.736 2.303-.473.512.368 1.024.841 1.33 1.419zM59.2 1.62c-.358 0-.665-.157-.973-.052-.46 0-.613.368-.665.736l.052 5.36c.41.158 1.28.21 1.688-.052.359-.316.615-.683.717-1.156.052-1.682.615-3.942-.819-4.836zm.41-.682a3.3 3.3 0 0 1 1.996 1.629c.358 1.155.562 3.048-.154 4.046-.358.526-.767.999-1.33 1.367-.103.367.255.367.46.682.717.527.82 1.736.82 2.682 0-.107-.103-.211-.154-.107-.052.158.051.263.204.263.052.894-.102 1.893.103 2.681a.464.464 0 0 0 .306.315c.257-.052.307-.315.41-.473-.051-.472.05-.997.102-1.471.154.105.308-.21.41 0 .102 1.209.051 2.469-.717 3.048-.307.21-.614.316-1.075.263a1.96 1.96 0 0 1-1.125-.894l-.154-.999v-3.784c-.153-.735-.307-1.524-1.023-1.733-.308-.106-.819-.21-1.075 0l-.102.21v5.833c.102.316.204.578.46.683.255.053.614 0 .563.42l-.103.159-2.66.051c-.103 0-.256-.105-.308 0-.256-.21-1.125.264-.921-.367 0-.368.461-.105.665-.263.256-.052.41-.314.563-.472 0-.263.154-.579.052-.842l.05-3.048c0-1.26-.05-2.47 0-3.573 0-.788 0-1.892-.05-2.733.05-.525 0-1.313.05-1.84-.102-.473-.204-.945-.613-1.103-.256-.105-.717.052-.82-.21-.05-.21 0-.368.206-.42h4.963zm59.93 1.524c-.462-.578-.973-1.103-1.946-.894a.86.86 0 0 0-.563.631c0 1.997 0 3.521.052 5.518.511.157 1.433.157 1.842 0 .46-.21.615-.683.768-1.209l.05-2.786c-.05-.366-.05-.892-.203-1.26m-2.252-1.314c1.535-.21 3.07.105 3.684 1.366.512.842.819 2.155.461 3.312-.46.84-.818 1.891-1.74 2.31 0 .474.511.58.716.947.206.422.41.79.41 1.366l.102 2.681c0 .473-.05 1.26.41 1.472.614-.211.46-1.157.563-1.84.051-.052.256-.052.307 0 .153 1.157-.102 2.259-.768 2.942-.358.16-.818.369-1.229.212-.46 0-.46-.526-.767-.789l-.154-1.524v-3.048c-.05-.683-.102-1.472-.614-1.839-.358-.316-1.023-.421-1.535-.21l-.103.156c-.204 2.05.052 3.732 0 5.887.052.316.103.683.461.841.307.052.46 0 .82.105.05.105 0 .263.05.42l-2.712.052-1.485-.104c-.102-.105-.102-.368 0-.421.462 0 .82-.158 1.076-.421l.153-.525V2.409c-.103-.316-.153-.63-.46-.789-.257-.104-.717.053-.717-.315.153-.367.46-.052.82-.21.766.053 1.38.053 2.25.053m16.223 4.414l-.204-.052c-.153.367-.204.841-.307 1.261l-.409 2.785a12.37 12.37 0 0 0-.307 1.84l.255.157 2.048-.053.102-.105c-.256-2.048-.87-3.836-1.177-5.833zm1.28-1.786c.205 1.471.666 2.785.82 4.309l.921 4.362c.307 1.051.256 2.418 1.228 2.943.256.052.563.052.41.472l-.052.105c-1.178.053-2.764.105-3.991-.051-.257-.737.613-.421.92-.632.256-.21.307-.63.256-1.103-.153-.737-.256-1.524-.563-2.102-.818-.053-1.791-.053-2.508.051-.204.263-.255.685-.307 1.105-.102.63-.512 1.577.103 2.102.256.263 1.279-.21.92.579-.818.156-1.79.104-2.609.104-.256-.104-.819.105-.665-.42 0-.316.51-.105.665-.21.46-.262.665-.736.767-1.209l.614-3.574.768-4.52.46-2.627c.155-.789.257-1.681.615-2.312l.666.052.562 2.576zM15.392 8.348l-.563-2.629-.103-.052-.358 1.945-.46 2.995-.052.684.41.053c.563-.158 1.28.261 1.637-.158l-.511-2.838zm.307-7.095c.204 1.419.614 2.68.82 4.151l1.074 5.413c.256 1.209.358 2.418.665 3.522.154.473.46.789.973.84 0 .158.153.263.05.368l-.153.158h-3.02c-.103-.158-.613 0-.818-.158-.154-.789.972-.157 1.074-.735.256-.263.154-.788.103-1.104-.256-.525-.05-1.42-.564-1.787h-2.047l-.205.105c-.05.946-.715 1.998-.153 2.944.205.158.615.104.768.262l-.051.315-2.918.053c-.307.105-.255-.368-.153-.472.615.051.973-.263 1.28-.579.358-.841.358-1.892.614-2.838l.563-3.679.512-3.047c.255-1.263.409-2.575.665-3.89.051-.263 1.023-.42.921.158z"></path>
</symbol>
<symbol id="icon-usa-today" viewBox="0 0 119 22">
<title>USA today</title>
<path d="M26.1 12.936V5.49h3.404v6.48c0 1.282.134 2.53 1.845 2.53 1.709 0 1.845-1.248 1.845-2.53V5.49h3.404v7.446c0 2.88-1.88 4.48-5.25 4.48-3.47 0-5.248-1.6-5.248-4.48m11.413 2.78l1.644-2.23c.608.716 1.624 1.365 2.792 1.365.881 0 1.405-.367 1.405-1.052 0-.814-.762-1.05-2.047-1.43-1.729-.517-3.251-1.398-3.251-3.414 0-2.215 1.845-3.698 4.452-3.698 1.811 0 3.183.548 4.047 1.35l-1.541 2.23a3.153 3.153 0 0 0-2.335-1.015c-.882 0-1.256.35-1.256.815 0 .734.898.934 1.882 1.234 1.928.598 3.418 1.466 3.418 3.614 0 2.249-1.642 3.93-4.605 3.93-2.184 0-3.877-.916-4.605-1.699m16.983-2.88l-.913-2.816a10.358 10.358 0 0 1-.408-1.748h-.1c-.069.499-.22 1.2-.408 1.748l-.913 2.816h2.742zm-3.2-7.347h3.742l4.42 11.695h-3.54l-.558-1.685h-4.488l-.54 1.685h-3.455l4.42-11.695zm13.108 2.716h-2.93V5.49h9.262v2.715h-2.93v8.976h-3.402zm16.12 3.147c0-2.1-1.39-3.18-3.048-3.18-1.626 0-3.014 1.08-3.014 3.18 0 2.084 1.388 3.15 3.014 3.15 1.658 0 3.048-1.066 3.048-3.15m-9.55 0c0-2.882 2.1-6.096 6.518-6.096 4.436 0 6.534 3.214 6.534 6.096 0 2.865-2.098 6.063-6.534 6.063-4.418 0-6.519-3.198-6.519-6.063m17.677 3.132h.729c2.183 0 3.354-1.032 3.354-3.147 0-2.117-1.17-3.15-3.354-3.15h-.728v6.297zm-3.403-8.993h4.386c4.2 0 6.603 2.198 6.603 5.846 0 3.58-2.47 5.847-6.603 5.847h-4.386V5.49zm18.137 7.345l-.914-2.816a10.358 10.358 0 0 1-.407-1.748h-.103a10.205 10.205 0 0 1-.407 1.748l-.912 2.816h2.743zm-3.2-7.347h3.743l4.416 11.695h-3.538l-.559-1.685h-4.488l-.539 1.685h-3.456l4.421-11.695zm10.26 7.53l-4.435-7.53h3.727l1.605 2.881c.339.618.813 1.551.917 2.166h.067c.1-.615.574-1.548.912-2.166l1.612-2.882h3.62l-4.436 7.53v4.165h-3.59v-4.164z"  ></path>
<path d="M21.377 11.3c0 5.806-4.786 10.514-10.69 10.514C4.787 21.814 0 17.106 0 11.3 0 5.492 4.786.785 10.688.785c5.903 0 10.689 4.707 10.689 10.515"  ></path>
</symbol>
<symbol id="icon-forbes" viewBox="0 0 62 15">
<title>Forbes</title>
<path d="M12.542.276l.072 4.059-.713.206c-.713-2.064-1.71-3.233-3.634-3.233H5.773a115.35 115.35 0 0 0-.143 5.848l1.71-.068c1.07 0 1.568-.826 1.782-1.996h.641v4.885h-.641c-.214-1.17-.713-1.995-1.782-1.995l-1.71-.069c0 1.789.07 3.233.143 4.128.142 1.307.498 1.927 1.425 1.995l.855.139v.55H0v-.55l.713-.139c.926-.068 1.282-.688 1.424-1.995.144-2.132.215-6.605 0-9.081C1.995 1.652 1.64 1.1.713.964L0 .894V.277h12.542zm25.228 3.99c2.423 0 4.276 2.064 4.276 4.886 0 3.578-2.28 5.848-6.057 5.848-1.355 0-2.709-.206-3.991-.482.071-1.445.142-10.252 0-11.903-.143-.826-.356-1.17-.998-1.307l-.499-.07V.827L35.276 0c-.072.689-.072 2.684-.072 4.885.785-.413 1.568-.62 2.566-.62zm-21.166-.137c3.564 0 5.346 2.339 5.346 5.435 0 2.959-1.996 5.436-5.56 5.436-3.563 0-5.344-2.34-5.344-5.436 0-2.958 1.996-5.435 5.558-5.435zm26.368 5.504c0-2.82 1.853-5.505 5.488-5.505 2.993 0 4.419 2.134 4.419 4.955H46.25c-.07 2.545 1.212 4.403 3.778 4.403 1.14 0 1.71-.274 2.423-.757l.285.344c-.713.963-2.28 1.927-4.276 1.927-3.207 0-5.488-2.202-5.488-5.367zM61.358 4.68l.072 2.683-.498.137c-.642-1.858-1.497-2.615-2.78-2.615-.855 0-1.497.62-1.497 1.514 0 .895.712 1.377 2.708 2.133C61.216 9.22 62 10.046 62 11.491 62 13.623 60.219 15 57.44 15c-1.355 0-2.923-.275-3.778-.619l-.071-3.028.498-.138c.785 2.064 1.783 2.821 3.136 2.821 1.14 0 1.782-.757 1.782-1.582 0-.826-.5-1.308-2.28-1.926-1.711-.551-2.922-1.308-2.922-3.096 0-1.79 1.64-3.304 4.275-3.304 1.283 0 2.423.207 3.278.552zm-30.144-.276l-1.14 2.82c-1.426-.894-2.993-.48-3.35 0-.07 1.653-.07 4.266.071 5.575.072.825.286 1.237.998 1.306l.855.07v.55h-6.627v-.55l.499-.07c.641-.069.926-.481.997-1.306.072-1.445.143-4.336 0-5.987-.07-.895-.356-1.238-.997-1.307l-.5-.07v-.412l4.775-.894-.07 2.408c1.14-2.477 3.278-2.821 4.489-2.133zm4.917 9.839c1.496 0 2.565-2.133 2.565-4.886 0-2.201-.855-3.99-2.423-3.99-.356 0-.64.069-1.069.207-.07 3.578 0 7.637.072 8.6.214.069.57.069.855.069zm-19.74-9.426c-1.568 0-1.996 2.064-1.996 4.747 0 2.615.713 4.748 2.139 4.748 1.638 0 2.067-2.064 2.067-4.748 0-2.615-.713-4.747-2.21-4.747zm29.86 3.51l3.349-.07c0-1.376-.214-3.44-1.425-3.44-1.212 0-1.853 1.926-1.925 3.51z"  ></path>
</symbol>
<symbol id="icon-tech-crunch" viewBox="0 0 120 17">
<title>tech-crunch</title>
<path  d="M44.894 6.642v7.525H42.17V6.642h-2.75V4.247h8.226v2.395zm5.768 1.814c-.575 0-.898.397-.982 1.133h2.106c-.127-.75-.38-1.133-1.124-1.133zm3.341 2.72H49.68c.084.822.56 1.19 1.249 1.19.645 0 1.18-.14 1.91-.523l.967 1.63c-.912.537-1.853.85-3.004.85-2.218 0-3.439-1.588-3.439-3.87 0-2.564 1.432-3.882 3.37-3.882 2.02 0 3.284 1.347 3.284 4.11 0 .212 0 .368-.014.496zm4.701 3.146c-2.161 0-3.453-1.388-3.453-3.896 0-2.282 1.151-3.854 3.51-3.854 1.39 0 2.19.651 2.835 1.7l-1.74 1.331c-.351-.651-.59-.963-1.137-.963-.647 0-.97.652-.97 1.828 0 1.177.352 1.785 1.04 1.785.476 0 .813-.269 1.276-.963l1.601 1.26c-.856 1.276-1.657 1.772-2.962 1.772m8.618-.155V9.944c0-.964-.323-1.219-.842-1.219-.534 0-.857.255-.857 1.19v4.252h-2.526v-9.31l2.526-1.02v3.386c.463-.354.982-.652 1.853-.652 1.615 0 2.387 1.091 2.387 3.047v4.549h-2.541zm8.589.155c-2.92 0-4.478-2.182-4.478-5.115 0-3.189 1.853-5.115 4.492-5.115 2.415 0 3.37 1.048 4.043 2.919l-2.47.977c-.351-.92-.688-1.502-1.587-1.502-1.136 0-1.628 1.148-1.628 2.72 0 1.517.477 2.721 1.657 2.721.856 0 1.22-.467 1.754-1.402l2.302 1.232c-.66 1.304-1.755 2.565-4.085 2.565m10.301-4.789c-.323-.354-.687-.624-1.179-.624-.618 0-.997.298-.997 1.205v4.053H81.51v-7.44h2.526v.538c.436-.425.927-.694 1.573-.694.533 0 .899.128 1.193.312l-.59 2.65zm6.008 4.634v-.497c-.45.354-.983.652-1.839.652-1.615 0-2.387-1.09-2.387-3.047V6.727h2.542v4.223c0 .963.322 1.218.842 1.218.519 0 .842-.255.842-1.19V6.727h2.54v7.44h-2.54zm8.59 0V9.944c0-.964-.323-1.219-.843-1.219-.534 0-.857.255-.857 1.19v4.252h-2.526v-7.44h2.526v.496c.464-.354.983-.652 1.854-.652 1.614 0 2.386 1.091 2.386 3.047v4.549h-2.54zm7.465.155c-2.161 0-3.453-1.388-3.453-3.896 0-2.282 1.151-3.854 3.51-3.854 1.39 0 2.19.651 2.835 1.7l-1.74 1.331c-.351-.651-.59-.963-1.137-.963-.646 0-.97.652-.97 1.828 0 1.177.352 1.785 1.04 1.785.476 0 .813-.269 1.276-.963l1.601 1.26c-.856 1.276-1.657 1.772-2.962 1.772m8.618-.155V9.944c0-.964-.323-1.219-.842-1.219-.534 0-.857.255-.857 1.19v4.252h-2.526v-9.31l2.526-1.02v3.386c.463-.354.982-.652 1.853-.652 1.615 0 2.387 1.091 2.387 3.047v4.549h-2.541z"></path>
<path  d="M0 0v5.667h5.614V17h5.614V5.667h5.614V0zm22.456 11.333V5.667h-5.614V17h16.842v-5.667zm0-5.666h11.228V0H22.456z"></path>
</symbol>
<symbol id="icon-grapes" viewBox="0 0 470 512">
<title>fruit grape</title>
<path d="M156.125,415.92c-2.671,7.529 -4.125,15.635 -4.125,24.08c0,39.765 32.236,72 72,72c39.764,0 72,-32.235 72,-72c0,-8.445 -1.454,-16.551 -4.125,-24.08c-26.311,-1.026 -50.113,-11.827 -67.875,-28.873c-17.762,17.046 -41.564,27.846 -67.875,28.873Zm-76.125,-103.92c0,-8.445 1.454,-16.551 4.125,-24.08c26.311,-1.027 50.113,-11.827 67.875,-28.873c12.145,11.655 27.114,20.391 43.778,25.078c-2.462,8.872 -3.778,18.22 -3.778,27.875c0,17.858 4.501,34.664 12.43,49.347c-13.131,13.946 -31.764,22.653 -52.43,22.653c-39.765,0 -72,-32.235 -72,-72Zm280,-20c1.727,0 3.444,-0.042 5.15,-0.125c1.855,6.387 2.85,13.14 2.85,20.125c0,39.765 -32.236,72 -72,72c-39.764,0 -72,-32.235 -72,-72c0,-8.445 1.454,-16.551 4.125,-24.08c23.309,-0.91 44.648,-9.49 61.564,-23.288c18.513,16.995 43.2,27.368 70.311,27.368Zm-272,-180c18.097,0 34.634,6.677 47.283,17.701c-9.694,15.805 -15.283,34.399 -15.283,54.299c0,19.9 5.589,38.495 15.283,54.3c-12.649,11.024 -29.186,17.7 -47.283,17.7c-39.765,0 -72,-32.235 -72,-72c0,-39.764 32.235,-72 72,-72Zm224.717,126.3c9.694,-15.805 15.283,-34.4 15.283,-54.3c0,-19.9 -5.589,-38.494 -15.283,-54.299c12.649,-11.024 29.186,-17.701 47.283,-17.701c39.765,0 72,32.236 72,72c0,39.765 -32.235,72 -72,72c-18.097,0 -34.634,-6.676 -47.283,-17.7Zm-160.717,-54.3c0,-36.685 27.436,-66.962 62.909,-71.431c0.975,-8.356 3.682,-28.481 8.122,-38.471c5.689,-12.8 13.369,-23.704 23.04,-32.711c9.671,-9.008 21.096,-16.593 34.276,-22.756c13.179,-6.163 27.164,-10.761 41.955,-13.795c14.791,-3.035 30.341,-4.646 46.649,-4.836l0,28.444c-22.945,0.38 -43.615,3.509 -62.009,9.387c-18.394,5.879 -33.896,15.55 -46.506,29.013c-10.591,11.307 -17.336,38.731 -19.225,47.226c31.453,7.715 54.789,36.097 54.789,69.93c0,39.765 -32.236,72 -72,72c-39.764,0 -72,-32.235 -72,-72Zm-146,-173.191c5.12,22.187 12.468,39.68 22.044,52.48c9.577,12.8 21.097,21.475 34.56,26.027c13.464,4.551 29.156,7.253 47.076,8.106c17.92,0.854 37.689,0.522 59.307,-0.995c11.567,-0.569 20.385,-0.948 26.453,-1.138c-10.05,-83.627 -73.197,-111.787 -189.44,-84.48Z"/>
</symbol>
<symbol id="icon-carrot" viewBox="0 0 512 512">
<title>carrot</title>
<path d="M493.66,27.52c-9.945-9.944-26.055-9.944-35.998,0l-59.601,59.606l18.894-45.12c5.42-12.961-0.68-27.878-13.658-33.314  c-13.025-5.436-27.876,0.696-33.313,13.657l-54.401,129.925c-20.294-3.085-44.651,1.522-69.73,12.774  c14.012,22.605,16.916,64.856,16.916,64.856c0.894,6.928-4.013,13.26-10.94,14.154c-6.313,0.813-12.149-3.182-13.805-9.147  c0,0-7.961-34.684-21.84-53.368c-14.375,9.375-28.581,20.58-41.954,33.959c-3.32,3.32-6.877,7.079-10.568,11.1  c17.652,25.821,22.567,64.216,24.01,78.417c0.895,6.928-4.013,13.26-10.94,14.154c-6.313,0.813-12.148-3.182-13.805-9.149  c0,0-6.59-32.968-23.292-55.508c-14.342,17.573-29.729,37.881-44.725,59.237c13.883,24.8,17.664,66.348,17.664,66.348  c0.895,6.943-4.012,13.275-10.939,14.17c-6.313,0.813-12.148-3.182-13.807-9.148c0,0-6.769-28.483-14.14-39.996  C29.994,412.331-3.142,481.142,16.84,501.125c35.418,35.386,224.264-96.047,285.621-157.404  c44.313-44.325,67.434-97.469,63.613-136.949l107.764-37.857c13.258-4.657,20.236-19.193,15.58-32.452  c-4.659-13.26-19.211-20.22-32.454-15.58l-31.846,11.189l68.542-68.553C503.604,53.575,503.604,37.465,493.66,27.52z"/>
</symbol>
<symbol id="icon-cocktail-coconut" viewBox="0 0 480 450">
<title>cocktail coconut</title>
<path d="M419.215,96.032l-82.992-43.337c-3.162-1.653-6.886-1.713-10.107-0.206c-3.206,1.515-5.525,4.44-6.25,7.919  l-21.793,103.169c-1.773-0.266-3.621-0.502-5.438-0.747l10.342-150.707c0.267-3.79-1.389-7.462-4.418-9.782  c-3.014-2.304-7.003-2.962-10.578-1.728l-72.621,24.933c-5.939,2.039-9.087,8.488-7.047,14.42c2.024,5.933,8.569,9.066,14.405,7.05  l56.457-19.379l-9.131,132.882c-10.063-0.731-20.553-1.161-31.413-1.161c-27.201,0-52.349,2.46-72.975,6.613l-10.313-27.489  c54.83-21.498,95.256-44.748,92.02-53.361c-1.122-3.006-132.104-21.166-132.104-21.166s-86.687,99.829-85.564,102.829  c3.236,8.621,48.98-0.458,104.402-20.331l9.456,25.192c-17.091,5.543-24.905,11.737-30.839,20.327l0.002-0.01  c-20.021,27.156-32.947,64.123-32.947,100.743c0,89.628,71.129,162.284,158.863,162.284c87.735,0,158.864-72.656,158.864-162.284  c0-36.62-13.483-74.007-33.167-101.407c-8.761-12.196-19.961-17.631-43.975-23.414l18.616-88.148l69.725,36.42  c5.614,2.896,12.426,0.739,15.321-4.809C426.913,105.789,424.757,98.934,419.215,96.032z M128.482,195.254  c3.045-2.63,9.943-6.073,20.406-9.39l7.875,20.98C141.884,202.901,132.221,198.483,128.482,195.254z M266.306,215.061  c-8.644,0.568-17.715,0.968-27.674,0.968c-21.793,0-40.174-1.604-55.658-3.907l-11.896-31.702  c17.495-3.397,39.821-5.933,67.554-5.933c11.037,0,20.952,0.496,30.378,1.184L266.306,215.061z M289.932,202.118l1.655-24.092  c1.108,0.156,2.26,0.297,3.339,0.459L289.932,202.118z M348.796,195.254c-4.432,3.834-17.006,9.354-37.131,13.748l5.542-26.226  C334.082,186.928,344.778,191.782,348.796,195.254z"/>
</symbol>
<symbol id="icon-hot-meal" viewBox="0 0 512 512">
<title>hot meal</title> 
<path   d="M267.895 20.495s-12.96 6.614-25.907 16.354c-6.473 4.87-13.025 10.52-18.205 17.027-5.18 6.506-9.402 14.232-8.76 23.266.714 10.04 7.52 17.517 14.78 22 7.259 4.482 15.502 7.194 23.265 9.869 7.764 2.675 15.05 5.313 19.672 8.168 4.623 2.854 6.052 4.703 6.283 7.963.027.37-.418 2.346-2.613 5.103-2.195 2.757-5.726 5.93-9.42 8.71-7.388 5.557-15.095 9.54-15.095 9.54l8.21 16.016s8.826-4.494 17.706-11.174c4.44-3.34 8.976-7.227 12.681-11.88 3.705-4.655 6.993-10.44 6.485-17.593-.714-10.04-7.52-17.517-14.78-22-7.259-4.483-15.502-7.194-23.265-9.869-7.764-2.675-15.05-5.313-19.672-8.168-4.623-2.855-6.052-4.703-6.283-7.963-.16-2.252 1.217-6.168 4.886-10.777 3.67-4.61 9.218-9.549 14.946-13.858 11.454-8.617 23.296-14.718 23.296-14.718zm-128 48s-12.96 6.614-25.907 16.354c-6.473 4.87-13.025 10.52-18.205 17.027-5.18 6.506-9.402 14.232-8.76 23.266.714 10.04 7.52 17.517 14.78 22 7.259 4.482 15.502 7.194 23.265 9.869 7.764 2.675 15.05 5.313 19.672 8.168 4.623 2.854 6.052 4.703 6.283 7.963.027.37-.418 2.346-2.613 5.103-2.195 2.757-5.726 5.93-9.42 8.71-7.388 5.557-15.095 9.54-15.095 9.54l8.21 16.016s8.826-4.494 17.706-11.174c4.44-3.34 8.976-7.227 12.681-11.881 3.705-4.654 6.993-10.44 6.485-17.592-.714-10.04-7.52-17.517-14.78-22-7.259-4.483-15.502-7.194-23.265-9.869-7.764-2.675-15.05-5.313-19.672-8.168-4.623-2.855-6.052-4.703-6.283-7.963-.16-2.252 1.217-6.168 4.886-10.777 3.67-4.61 9.218-9.549 14.946-13.858 11.454-8.617 23.296-14.718 23.296-14.718zm256 0s-12.96 6.614-25.907 16.354c-6.473 4.87-13.025 10.52-18.205 17.027-5.18 6.506-9.402 14.232-8.76 23.266.714 10.04 7.52 17.517 14.78 22 7.259 4.482 15.502 7.194 23.265 9.869 7.764 2.675 15.05 5.313 19.672 8.168 4.623 2.854 6.052 4.703 6.283 7.963.027.37-.418 2.346-2.613 5.103-2.195 2.757-5.726 5.93-9.42 8.71-7.388 5.557-15.095 9.54-15.095 9.54l8.21 16.016s8.826-4.494 17.706-11.174c4.44-3.34 8.976-7.227 12.681-11.881 3.705-4.654 6.993-10.44 6.485-17.592-.714-10.04-7.52-17.517-14.78-22-7.259-4.483-15.502-7.194-23.265-9.869-7.764-2.675-15.05-5.313-19.672-8.168-4.623-2.855-6.052-4.703-6.283-7.963-.16-2.252 1.217-6.168 4.886-10.777 3.67-4.61 9.218-9.549 14.946-13.858 11.454-8.617 23.296-14.718 23.296-14.718zM256 187.501c-13 0-21.792 5.914-28.512 15.994-2.782 4.173-5.027 9.1-6.715 14.465 11.32-1.607 23.07-2.455 35.227-2.455 12.157 0 23.906.848 35.227 2.455-1.688-5.365-3.933-10.292-6.715-14.465-6.72-10.08-15.512-15.994-28.512-15.994zm0 46c-119.427 0-193.752 86.039-198.54 174.004h397.08C449.751 319.54 375.426 233.5 256 233.5zM22.363 412.14L9.637 424.866C27.757 442.987 48 443.501 64 443.501h384c16 0 36.242-.514 54.363-18.635l-12.726-12.726C475.757 426.019 464 425.505 448 425.505H64c-16 0-27.758.514-41.637-13.365zm90.451 49.361l20.002 30.004h246.368l20.002-30.004z"/>
</symbol>
<symbol id="icon-fork-and-knife" viewBox="0 0 512 512">
<title>fork and knife</title> 
<g  >
	<path   d="M50.57,55.239C27.758,29.036-13.992,53.833,4.68,95.145c12.438,27.563,36.469,94.922,70.016,143.438   c33.563,48.516,69.328,43.328,105.453,55.078l25.953,13.422l177.547,204.204l35.906-31.234l0.188-0.156   c-5.25-6.047-166.719-191.782-230.563-265.204C125.992,142.02,61.664,68.004,50.57,55.239z"/>
	<path   d="M476.664,93.551l-61.938,71.266c-3.969,4.563-10.859,5.031-15.422,1.063l-2.203-1.906   c-4.531-3.953-5.031-10.844-1.063-15.406l62.234-71.594c10.219-11.734,5.375-22.125-2.219-28.719   c-7.578-6.578-18.531-9.938-28.75,1.813l-62.234,71.594c-3.953,4.547-10.859,5.031-15.406,1.063l-2.188-1.906   c-4.563-3.953-5.047-10.859-1.094-15.406l61.953-71.266c18.297-21.031-12.297-46.375-30.156-25.828   c-21.391,24.594-59.156,68.031-59.156,68.031c-33,37.688-32.5,55.344-27.844,80.078c3.781,19.938,9.328,34.281-11.156,57.844   l-30.234,34.781l31.719,36.453l34.641-39.844c20.469-23.547,35.453-20.047,55.719-19.094c25.156,1.203,42.703-0.766,75.422-38.672   c0,0,37.766-43.469,59.156-68.063C524.305,99.286,494.945,72.536,476.664,93.551z"/>
	<polygon   points="185.758,322.692 49.102,479.88 85.211,511.286 219.055,357.348 191.508,325.661  "/>
</g>
</symbol>
<symbol id="icon-fruits-apple-grapes" viewBox="0 0 256 256">
<title>fruits apple and grape</title>
<g xmlns="http://www.w3.org/2000/svg" style="stroke: none; stroke-width: 0; stroke-dasharray: none; stroke-linecap: butt; stroke-linejoin: miter; stroke-miterlimit: 10;  opacity: 1;" transform="translate(1.4065934065934016 1.4065934065934016) scale(2.81 2.81)">
	<path d="M 68.362 66.058 c -0.506 0 -1.019 -0.022 -1.54 -0.069 c -0.55 -0.049 -0.956 -0.535 -0.907 -1.085 c 0.05 -0.549 0.531 -0.961 1.085 -0.907 c 10.951 0.986 18.28 -10.086 20.687 -21.488 c 1.186 -7.022 -1.002 -13.416 -5.859 -17.065 c -4.393 -3.299 -10.267 -3.698 -15.716 -1.068 c -0.273 0.133 -0.596 0.133 -0.869 0 c -5.18 -2.5 -10.645 -2.298 -14.992 0.559 c -4.567 3.002 -7.139 8.516 -6.879 14.751 c 0.023 0.552 -0.406 1.018 -0.958 1.041 c -0.58 0.012 -1.018 -0.406 -1.041 -0.958 c -0.29 -6.944 2.619 -13.114 7.78 -16.506 c 4.825 -3.17 10.822 -3.488 16.525 -0.892 c 6.014 -2.734 12.467 -2.195 17.352 1.474 c 5.467 4.106 7.943 11.223 6.623 19.037 C 87.165 54.66 79.672 66.057 68.362 66.058 z" style="stroke: none; stroke-width: 1; stroke-dasharray: none; stroke-linecap: butt; stroke-linejoin: miter; stroke-miterlimit: 10;    opacity: 1;" transform=" matrix(1 0 0 1 0 0) " stroke-linecap="round"/>
	<path d="M 53.699 15.58 c -0.082 -0.303 -0.187 -0.723 -0.256 -1.036 c -0.07 -0.323 -0.134 -0.646 -0.188 -0.976 c -0.069 -0.427 -0.115 -0.8 -0.154 -1.175 c -0.089 -0.856 -0.13 -1.736 -0.121 -2.616 c 0.006 -0.526 0.418 -0.959 0.944 -0.988 c 3.445 -0.189 6.413 0.819 8.613 2.923 c 2.722 2.602 4.191 6.783 4.138 11.775 c -0.006 0.549 -0.452 0.989 -1 0.989 c -0.004 0 -0.007 0 -0.011 0 c -0.553 -0.006 -0.995 -0.459 -0.989 -1.011 c 0.048 -4.432 -1.202 -8.092 -3.52 -10.307 c -1.613 -1.542 -3.684 -2.344 -6.164 -2.39 c 0.018 0.478 0.05 0.952 0.099 1.418 c 0.036 0.339 0.076 0.674 0.129 1.003 c 0.059 0.354 0.116 0.643 0.178 0.929 c 0.061 0.277 0.127 0.554 0.201 0.826 c 0 0 0.03 0.113 0.03 0.114 c 0.187 0.641 0.43 1.295 0.646 1.796 c 0.724 1.634 1.725 2.942 2.977 3.886 c 0.44 0.333 0.528 0.96 0.195 1.4 c -0.332 0.44 -0.958 0.53 -1.4 0.196 c -1.526 -1.152 -2.737 -2.725 -3.6 -4.674 l -0.061 -0.131 c -0.248 -0.576 -0.469 -1.199 -0.657 -1.85 C 53.728 15.675 53.7 15.586 53.699 15.58 z" style="stroke: none; stroke-width: 1; stroke-dasharray: none; stroke-linecap: butt; stroke-linejoin: miter; stroke-miterlimit: 10;    opacity: 1;" transform=" matrix(1 0 0 1 0 0) " stroke-linecap="round"/>
	<path d="M 65.676 24.476 c -0.548 0 -0.994 -0.44 -1 -0.989 c -0.064 -5.945 2.042 -10.704 5.777 -13.056 c 0.471 -0.293 1.085 -0.152 1.38 0.313 c 0.294 0.467 0.153 1.084 -0.313 1.379 c -3.135 1.974 -4.9 6.107 -4.844 11.342 c 0.006 0.552 -0.437 1.005 -0.989 1.011 C 65.683 24.476 65.679 24.476 65.676 24.476 z" style="stroke: none; stroke-width: 1; stroke-dasharray: none; stroke-linecap: butt; stroke-linejoin: miter; stroke-miterlimit: 10;    opacity: 1;" transform=" matrix(1 0 0 1 0 0) " stroke-linecap="round"/>
	<path d="M 76.635 56.216 c -0.248 0 -0.497 -0.092 -0.69 -0.276 c -0.399 -0.382 -0.414 -1.015 -0.033 -1.414 c 0.676 -0.708 1.32 -1.512 1.916 -2.391 c 0.311 -0.459 0.933 -0.576 1.389 -0.268 c 0.458 0.311 0.577 0.932 0.268 1.389 c -0.658 0.972 -1.373 1.863 -2.125 2.65 C 77.162 56.112 76.899 56.216 76.635 56.216 z" style="stroke: none; stroke-width: 1; stroke-dasharray: none; stroke-linecap: butt; stroke-linejoin: miter; stroke-miterlimit: 10;    opacity: 1;" transform=" matrix(1 0 0 1 0 0) " stroke-linecap="round"/>
	<path d="M 81.318 48.513 c -0.119 0 -0.239 -0.021 -0.356 -0.065 c -0.517 -0.197 -0.774 -0.775 -0.578 -1.291 c 0.545 -1.426 0.987 -2.935 1.314 -4.483 c 1.329 -7.873 -3.124 -13.094 -8.213 -14.161 c -0.541 -0.113 -0.887 -0.643 -0.773 -1.184 c 0.113 -0.542 0.645 -0.886 1.184 -0.773 c 6.024 1.263 11.315 7.333 9.768 16.491 c -0.356 1.691 -0.829 3.3 -1.41 4.823 C 82.1 48.268 81.72 48.513 81.318 48.513 z" style="stroke: none; stroke-width: 1; stroke-dasharray: none; stroke-linecap: butt; stroke-linejoin: miter; stroke-miterlimit: 10;    opacity: 1;" transform=" matrix(1 0 0 1 0 0) " stroke-linecap="round"/>
	<path d="M 20.952 69.475 c -3.797 0 -7.303 -2.18 -8.96 -5.677 c -2.342 -4.943 -0.225 -10.871 4.719 -13.214 c 4.442 -2.106 9.828 -0.602 12.527 3.498 c 0.304 0.461 0.176 1.081 -0.285 1.385 s -1.082 0.177 -1.385 -0.285 c -2.155 -3.271 -6.455 -4.469 -10.001 -2.791 c -3.947 1.871 -5.637 6.605 -3.768 10.552 c 1.457 3.075 4.7 4.869 8.083 4.478 c 0.545 -0.068 1.045 0.327 1.11 0.876 s -0.328 1.046 -0.876 1.11 C 21.726 69.452 21.337 69.475 20.952 69.475 z" style="stroke: none; stroke-width: 1; stroke-dasharray: none; stroke-linecap: butt; stroke-linejoin: miter; stroke-miterlimit: 10;    opacity: 1;" transform=" matrix(1 0 0 1 0 0) " stroke-linecap="round"/>
	<path d="M 52.865 52.552 c -0.118 0 -0.237 -0.021 -0.354 -0.065 c -0.517 -0.195 -0.776 -0.772 -0.58 -1.289 c 0.771 -2.034 0.683 -4.237 -0.248 -6.202 c -1.87 -3.948 -6.603 -5.637 -10.551 -3.768 c -3.117 1.477 -4.912 4.765 -4.466 8.182 c 0.071 0.548 -0.315 1.049 -0.863 1.12 c -0.539 0.072 -1.049 -0.313 -1.121 -0.862 c -0.557 -4.28 1.69 -8.398 5.593 -10.248 c 4.944 -2.341 10.871 -0.225 13.214 4.719 c 1.167 2.46 1.277 5.219 0.311 7.767 C 53.649 52.306 53.269 52.552 52.865 52.552 z" style="stroke: none; stroke-width: 1; stroke-dasharray: none; stroke-linecap: butt; stroke-linejoin: miter; stroke-miterlimit: 10;    opacity: 1;" transform=" matrix(1 0 0 1 0 0) " stroke-linecap="round"/>
	<path d="M 36.485 68.347 c -1.125 0 -2.253 -0.193 -3.343 -0.583 c -2.496 -0.892 -4.495 -2.701 -5.63 -5.097 c -1.135 -2.395 -1.269 -5.088 -0.377 -7.583 c 0.891 -2.496 2.701 -4.496 5.096 -5.63 c 4.944 -2.344 10.872 -0.227 13.215 4.719 c 1.135 2.395 1.269 5.088 0.377 7.584 c -0.891 2.495 -2.701 4.495 -5.096 5.629 C 39.377 68.026 37.934 68.347 36.485 68.347 z M 36.473 50.494 c -1.157 0 -2.31 0.257 -3.386 0.767 c -1.912 0.906 -3.357 2.503 -4.069 4.495 c -0.711 1.993 -0.604 4.144 0.302 6.055 c 0 0.001 0 0.001 0 0.001 c 0.906 1.912 2.502 3.356 4.495 4.068 c 1.993 0.711 4.143 0.604 6.055 -0.301 c 1.913 -0.906 3.357 -2.503 4.069 -4.495 c 0.711 -1.992 0.604 -4.143 -0.302 -6.056 c -0.906 -1.912 -2.502 -3.357 -4.495 -4.068 C 38.271 50.649 37.371 50.494 36.473 50.494 z" style="stroke: none; stroke-width: 1; stroke-dasharray: none; stroke-linecap: butt; stroke-linejoin: miter; stroke-miterlimit: 10;    opacity: 1;" transform=" matrix(1 0 0 1 0 0) " stroke-linecap="round"/>
	<path d="M 61.882 63.461 c -0.074 0 -0.149 -0.008 -0.225 -0.025 c -0.539 -0.124 -0.875 -0.66 -0.751 -1.198 c 0.402 -1.751 0.208 -3.535 -0.563 -5.162 c -1.869 -3.946 -6.6 -5.635 -10.551 -3.768 c -1.63 0.773 -2.913 2.034 -3.709 3.648 c -0.245 0.495 -0.845 0.699 -1.339 0.454 c -0.496 -0.244 -0.699 -0.844 -0.454 -1.339 c 0.998 -2.022 2.604 -3.602 4.646 -4.569 c 4.948 -2.346 10.873 -0.226 13.214 4.719 c 0.966 2.036 1.209 4.272 0.705 6.465 C 62.749 63.148 62.337 63.461 61.882 63.461 z" style="stroke: none; stroke-width: 1; stroke-dasharray: none; stroke-linecap: butt; stroke-linejoin: miter; stroke-miterlimit: 10;    opacity: 1;" transform=" matrix(1 0 0 1 0 0) " stroke-linecap="round"/>
	<path d="M 60.481 81.214 c -3.607 0 -7.051 -1.982 -8.806 -5.428 c -0.251 -0.492 -0.056 -1.095 0.437 -1.345 c 0.493 -0.253 1.095 -0.056 1.345 0.437 c 1.958 3.844 6.546 5.404 10.448 3.559 c 3.947 -1.87 5.637 -6.603 3.768 -10.551 c -0.906 -1.912 -2.503 -3.356 -4.495 -4.068 c -1.993 -0.711 -4.142 -0.605 -6.056 0.301 c -1.608 0.763 -2.882 2.004 -3.682 3.59 c -0.249 0.492 -0.849 0.692 -1.343 0.442 c -0.493 -0.248 -0.691 -0.85 -0.442 -1.343 c 1.001 -1.987 2.596 -3.542 4.611 -4.496 c 2.394 -1.137 5.089 -1.27 7.583 -0.378 c 2.496 0.892 4.496 2.701 5.63 5.097 c 2.343 4.943 0.226 10.871 -4.719 13.213 C 63.371 80.902 61.913 81.214 60.481 81.214 z" style="stroke: none; stroke-width: 1; stroke-dasharray: none; stroke-linecap: butt; stroke-linejoin: miter; stroke-miterlimit: 10;    opacity: 1;" transform=" matrix(1 0 0 1 0 0) " stroke-linecap="round"/>
	<path d="M 20.785 51.631 c -0.177 0 -0.356 -0.047 -0.519 -0.146 C 13.592 47.429 9.681 41.095 8.641 32.659 c -0.067 -0.548 0.322 -1.047 0.87 -1.115 c 0.554 -0.064 1.048 0.322 1.115 0.87 c 0.975 7.908 4.468 13.587 10.679 17.363 c 0.472 0.287 0.622 0.902 0.335 1.374 C 21.452 51.46 21.123 51.631 20.785 51.631 z" style="stroke: none; stroke-width: 1; stroke-dasharray: none; stroke-linecap: butt; stroke-linejoin: miter; stroke-miterlimit: 10;    opacity: 1;" transform=" matrix(1 0 0 1 0 0) " stroke-linecap="round"/>
	<path d="M 4.656 66.937 c -0.207 0 -0.41 -0.063 -0.58 -0.186 c -0.218 -0.155 -0.365 -0.392 -0.407 -0.656 c -0.596 -3.729 0.339 -6.883 2.781 -9.401 c -3.264 -1.286 -5.418 -3.773 -6.414 -7.415 c -0.071 -0.259 -0.035 -0.534 0.1 -0.767 c 0.135 -0.231 0.357 -0.399 0.617 -0.466 c 7.027 -1.8 13.659 -1.357 19.718 1.311 c 0.293 0.129 0.506 0.391 0.574 0.703 l 0.085 0.395 c 0.117 0.54 -0.226 1.072 -0.766 1.189 c -0.501 0.11 -0.997 -0.18 -1.158 -0.653 C 13.987 48.807 8.3 48.385 2.278 49.736 c 1.09 2.961 3.185 4.784 6.379 5.559 c 0.373 0.09 0.661 0.386 0.742 0.761 c 0.081 0.374 -0.06 0.763 -0.362 0.999 c -2.588 2.023 -3.744 4.549 -3.515 7.697 c 2.495 -0.519 4.825 -1.289 6.939 -2.297 c 0.5 -0.234 1.095 -0.026 1.333 0.474 c 0.237 0.498 0.026 1.095 -0.473 1.333 c -2.568 1.223 -5.425 2.117 -8.491 2.659 C 4.772 66.932 4.714 66.937 4.656 66.937 z" style="stroke: none; stroke-width: 1; stroke-dasharray: none; stroke-linecap: butt; stroke-linejoin: miter; stroke-miterlimit: 10;    opacity: 1;" transform=" matrix(1 0 0 1 0 0) " stroke-linecap="round"/>
	<path d="M 20.817 51.613 c -0.344 0 -0.678 -0.177 -0.864 -0.495 c -0.145 -0.248 -0.281 -0.505 -0.407 -0.769 c -2.342 -4.946 -0.226 -10.874 4.718 -13.216 c 4.945 -2.343 10.873 -0.225 13.215 4.719 c 0.21 0.444 0.39 0.908 0.532 1.377 c 0.16 0.529 -0.138 1.087 -0.667 1.248 c -0.533 0.16 -1.088 -0.138 -1.248 -0.667 c -0.114 -0.376 -0.257 -0.747 -0.425 -1.102 c -1.87 -3.947 -6.603 -5.64 -10.551 -3.768 c -3.947 1.87 -5.638 6.603 -3.768 10.551 c 0.1 0.211 0.209 0.417 0.326 0.616 c 0.279 0.477 0.119 1.089 -0.358 1.368 C 21.162 51.569 20.988 51.613 20.817 51.613 z" style="stroke: none; stroke-width: 1; stroke-dasharray: none; stroke-linecap: butt; stroke-linejoin: miter; stroke-miterlimit: 10;   opacity: 1;" transform=" matrix(1 0 0 1 0 0) " stroke-linecap="round"/>
	<path d="M 30.511 81.047 c -3.717 0 -7.288 -2.097 -8.982 -5.674 c -1.134 -2.395 -1.269 -5.088 -0.377 -7.583 c 0.892 -2.496 2.701 -4.496 5.096 -5.63 c 0.648 -0.308 1.332 -0.545 2.032 -0.707 c 0.533 -0.126 1.075 0.211 1.199 0.75 c 0.124 0.538 -0.212 1.075 -0.75 1.199 c -0.56 0.129 -1.106 0.319 -1.624 0.564 c -1.913 0.906 -3.358 2.503 -4.069 4.495 c -0.712 1.993 -0.604 4.144 0.301 6.056 c 0.906 1.912 2.502 3.356 4.495 4.068 c 1.993 0.71 4.143 0.604 6.056 -0.301 c 1.107 -0.524 2.051 -1.272 2.807 -2.224 c 0.343 -0.433 0.972 -0.504 1.405 -0.161 c 0.433 0.344 0.504 0.973 0.161 1.405 c -0.948 1.193 -2.131 2.131 -3.516 2.786 C 33.376 80.741 31.932 81.047 30.511 81.047 z" style="stroke: none; stroke-width: 1; stroke-dasharray: none; stroke-linecap: butt; stroke-linejoin: miter; stroke-miterlimit: 10;  opacity: 1;" transform=" matrix(1 0 0 1 0 0) " stroke-linecap="round"/>
	<path d="M 44.615 81.232 c -3.717 0 -7.288 -2.097 -8.982 -5.674 c -1.309 -2.764 -1.28 -5.921 0.081 -8.663 c 0.246 -0.495 0.845 -0.698 1.34 -0.451 c 0.495 0.245 0.697 0.846 0.452 1.34 c -1.087 2.19 -1.111 4.712 -0.065 6.919 c 1.87 3.946 6.6 5.635 10.551 3.768 c 1.911 -0.906 3.356 -2.503 4.068 -4.495 c 0.712 -1.993 0.604 -4.144 -0.301 -6.056 c -1.326 -2.797 -4.163 -4.591 -7.28 -4.531 c -0.579 -0.007 -1.007 -0.434 -1.015 -0.985 c -0.008 -0.553 0.434 -1.007 0.985 -1.015 c 3.891 -0.054 7.456 2.172 9.116 5.676 c 1.135 2.395 1.269 5.088 0.377 7.584 c -0.891 2.495 -2.7 4.495 -5.096 5.629 C 47.48 80.925 46.036 81.232 44.615 81.232 z" style="stroke: none; stroke-width: 1; stroke-dasharray: none; stroke-linecap: butt; stroke-linejoin: miter; stroke-miterlimit: 10;  opacity: 1;" transform=" matrix(1 0 0 1 0 0) " stroke-linecap="round"/>
</g></symbol>
  </defs>
</svg>